<svg xmlns="http://www.w3.org/2000/svg" width="115.546" height="88.249" viewBox="0 0 115.546 88.249">
  <g id="_2021_favicon-m-clair-01" data-name="2021_favicon-m-clair-01" transform="translate(-5.044 -9.832)">
    <path id="Tracé_150" data-name="Tracé 150" d="M314.076,97.222a12.154,12.154,0,0,1-10.544-6.09l-36.1-62.5a12.173,12.173,0,1,1,20.418-13.261,11.979,11.979,0,0,1,.631,1.092l36.085,62.517a12.171,12.171,0,0,1-10.525,18.252Z" transform="translate(-205.609 0)" fill="#e2bebb"/>
    <path id="Tracé_151" data-name="Tracé 151" d="M127.32,99.445a12.164,12.164,0,0,1-10.552-6.09l-36.087-62.5a12.171,12.171,0,0,1,21.072-12.169L137.84,81.2a12.171,12.171,0,0,1-10.525,18.252Z" transform="translate(-58.546 -2.396)" fill="#e2bebb"/>
    <path id="Tracé_152" data-name="Tracé 152" d="M28.534,264.345a12.139,12.139,0,0,1-10.546-6.087L6.674,238.671a12.165,12.165,0,1,1,21.072-12.16L39.055,246.1A12.169,12.169,0,0,1,28.53,264.345Z" transform="translate(0 -166.264)" fill="#e2bebb"/>
  </g>
</svg>
