<svg xmlns="http://www.w3.org/2000/svg" width="20.416" height="23.332" viewBox="0 0 20.416 23.332">
  <path id="trash-alt-regular" d="M12.213,18.957h1.094a.547.547,0,0,0,.547-.547V8.567a.547.547,0,0,0-.547-.547H12.213a.547.547,0,0,0-.547.547V18.41A.547.547,0,0,0,12.213,18.957ZM19.686,3.646H15.931L14.382,1.062A2.187,2.187,0,0,0,12.5,0H7.911A2.187,2.187,0,0,0,6.035,1.062L4.485,3.646H.729A.729.729,0,0,0,0,4.375V5.1a.729.729,0,0,0,.729.729h.729V21.145a2.187,2.187,0,0,0,2.187,2.187H16.77a2.187,2.187,0,0,0,2.187-2.187V5.833h.729a.729.729,0,0,0,.729-.729V4.375A.729.729,0,0,0,19.686,3.646ZM7.831,2.32a.273.273,0,0,1,.235-.133H12.35a.273.273,0,0,1,.235.133l.8,1.326H7.036ZM16.77,21.145H3.646V5.833H16.77ZM7.109,18.957H8.2a.547.547,0,0,0,.547-.547V8.567A.547.547,0,0,0,8.2,8.02H7.109a.547.547,0,0,0-.547.547V18.41A.547.547,0,0,0,7.109,18.957Z"/>
</svg>
